<?xml version="1.0" encoding="iso-8859-1"?>
<!-- Uploaded to: SVG Repo, www.svgrepo.com, Generator: SVG Repo Mixer Tools -->
<!DOCTYPE svg PUBLIC "-//W3C//DTD SVG 1.1//EN" "http://www.w3.org/Graphics/SVG/1.1/DTD/svg11.dtd">
<svg fill="#000000" height="800px" width="800px" version="1.1" id="Capa_1" xmlns="http://www.w3.org/2000/svg" xmlns:xlink="http://www.w3.org/1999/xlink" 
	 viewBox="0 0 291.428 291.428" xml:space="preserve">
<g>
	<path d="M277.105,0.771H55.25c-7.91,0-14.322,6.412-14.322,14.322v101.273l20.98-8.017c2.401-0.918,4.871-1.572,7.384-1.979V73.442
		c0-5.083,4.121-9.204,9.204-9.204h175.364c5.083,0,9.204,4.121,9.204,9.204v139.979c0,5.083-4.121,9.204-9.204,9.204h-95.522
		c-3.407,9.858-7.39,19.433-11.841,28.363h130.61c7.91,0,14.322-6.412,14.322-14.322V15.093
		C291.428,7.183,285.015,0.771,277.105,0.771z M183.63,41.864c0,2.741-2.222,4.963-4.963,4.963h-14.365
		c-2.741,0-4.963-2.222-4.963-4.963V27.499c0-2.741,2.222-4.963,4.963-4.963h14.365c2.741,0,4.963,2.222,4.963,4.963V41.864z
		 M223.346,41.864c0,2.741-2.222,4.963-4.963,4.963h-14.365c-2.741,0-4.963-2.222-4.963-4.963V27.499
		c0-2.741,2.222-4.963,4.963-4.963h14.365c2.741,0,4.963,2.222,4.963,4.963V41.864z M263.063,41.864
		c0,2.741-2.222,4.963-4.963,4.963h-14.365c-2.741,0-4.963-2.222-4.963-4.963V27.499c0-2.741,2.222-4.963,4.963-4.963H258.1
		c2.741,0,4.963,2.222,4.963,4.963V41.864z"/>
	<path d="M139.343,149.121l-57.808-22.089c-2.011-0.768-4.127-1.152-6.244-1.152c-2.117,0-4.234,0.384-6.244,1.152l-57.808,22.089
		c-7.359,2.812-11.925,10.214-11.154,18.054C5.133,218.504,36.8,290.657,75.291,290.657c38.491,0,70.158-72.153,75.206-123.481
		C151.269,159.323,146.713,151.938,139.343,149.121z"/>
</g>
</svg>